# xmcd
#
# Track frame offsets:
#	150
#	15222
#	26546
#	49158
#	64509
#	73212
#	82534
#	96367
#	105823
#	122199
#	132894
#	150401
#	159936
#	169389
#	182941
#	197744
#
# Disc length: 2795 seconds
#
# Revision: 1
# Processed by: cddbd v1.4PL0 Copyright (c) Steve Scherf et al.
# Submitted via: CDmax 1.9
#
DISCID=c10ae910
DTITLE=The Platters - The golden coleection CD 2
DYEAR=2000
DGENRE=Blues
TTITLE0=The great pretender
TTITLE1=Smoke gets in your eyes
TTITLE2=Unchained melody
TTITLE3=My prayer
TTITLE4=Sweet sweet lovin'
TTITLE5=Baby baby
TTITLE6=Harbour lights
TTITLE7=Sunday morning
TTITLE8=I love you because
TTITLE9=Red sails in the sunset
TTITLE10=If I had a love
TTITLE11=Love must go on
TTITLE12=Doesn't it ring a bell
TTITLE13=Alone in the night
TTITLE14=Loving you
TTITLE15=With this ring
EXTD=
EXTT0=
EXTT1=
EXTT2=
EXTT3=
EXTT4=
EXTT5=
EXTT6=
EXTT7=
EXTT8=
EXTT9=
EXTT10=
EXTT11=
EXTT12=
EXTT13=
EXTT14=
EXTT15=
PLAYORDER=
